<svg width="66" height="66" viewBox="0 0 66 66" fill="none" xmlns="http://www.w3.org/2000/svg">
<rect width="62" height="64" fill="black" fill-opacity="0" transform="translate(2 1)"/>
<rect width="62" height="64" fill="black" fill-opacity="0" transform="translate(2 1)"/>
<rect width="62" height="64" fill="black" fill-opacity="0" transform="translate(2 1)"/>
<path fill-rule="evenodd" clip-rule="evenodd" d="M33.0001 4.36787C48.0514 4.36787 60.3209 16.3563 60.608 31.1972H64C63.7166 14.4995 49.9245 1 33.0001 1C16.0758 1 2.28318 14.4995 2 31.1972H5.39197C5.67915 16.3563 17.9483 4.36787 33.0001 4.36787Z" fill="#662F90" stroke="#662F89" stroke-width="2"/>
<path fill-rule="evenodd" clip-rule="evenodd" d="M33.0004 61.6568C18.4972 61.6568 6.57136 50.6092 5.40845 36.6056H2C3.17549 52.4555 16.6249 65 33.0004 65C49.3759 65 62.8248 52.4555 64 36.6056H60.5915C59.4292 50.6092 47.5036 61.6568 33.0004 61.6568Z" fill="#662F90" stroke="#662F89" stroke-width="2"/>
<path fill-rule="evenodd" clip-rule="evenodd" d="M39.2047 29.7473V29.8183C39.2047 32.0014 37.5757 33.6765 34.7879 33.6765H30.3708V25.8899H34.6783C37.4664 25.8899 39.2047 27.2347 39.2047 29.7473ZM27.5818 20.831C26.0255 20.831 24.7941 22.0685 24.7941 23.6333V43.718C24.7941 45.2853 26.0255 46.5211 27.5818 46.5211C29.1398 46.5211 30.3708 45.2853 30.3708 43.718V38.6595H34.6068C40.2919 38.6595 44.8529 35.6033 44.8529 29.7114V29.6359C44.8529 24.4333 41.1968 20.831 35.1502 20.831H27.5818Z" fill="#662F90"/>
</svg>
